<svg width="109" height="25" viewBox="0 0 109 25" fill="none" xmlns="http://www.w3.org/2000/svg">
<g clip-path="url(#clip0_584_1563)">
<path d="M8.78261 5.5C7.33767 5.5 5.95192 6.06469 4.9302 7.06985L1.59572 10.3503C0.573998 11.3554 0 12.7187 0 14.1402C0 17.1004 2.43922 19.5 5.44815 19.5C6.8931 19.5 8.27884 18.9353 9.30056 17.9301L11.607 15.6611C11.607 15.661 11.6071 15.6611 11.607 15.6611L18.3273 9.04975C18.8153 8.56969 19.4771 8.3 20.1672 8.3C21.3226 8.3 22.3021 9.04079 22.6417 10.0659L24.7626 7.97938C23.795 6.48856 22.0985 5.5 20.1672 5.5C18.7223 5.5 17.3365 6.06469 16.3148 7.06985L7.28805 15.9503C6.80008 16.4303 6.13825 16.7 5.44815 16.7C4.0111 16.7 2.84615 15.554 2.84615 14.1402C2.84615 13.4613 3.12029 12.8102 3.60826 12.3301L6.94272 9.04975C7.43069 8.56969 8.09251 8.3 8.78261 8.3C9.93801 8.3 10.9175 9.04082 11.2571 10.066L13.378 7.97943C12.4105 6.48859 10.7139 5.5 8.78261 5.5Z" fill="#54AB5D"/>
<path d="M18.6733 15.9503C18.1854 16.4303 17.5235 16.7 16.8334 16.7C15.6782 16.7 14.6988 15.9594 14.3591 14.9345L12.2383 17.0209C13.2059 18.5116 14.9023 19.5 16.8334 19.5C18.2784 19.5 19.6641 18.9353 20.6859 17.9301L29.7126 9.04975C30.2006 8.56969 30.8624 8.3 31.5525 8.3C32.9896 8.3 34.1545 9.44606 34.1545 10.8598C34.1545 11.5387 33.8804 12.1898 33.3924 12.6699L30.058 15.9503C29.57 16.4303 28.9082 16.7 28.2181 16.7C27.0628 16.7 26.0833 15.9593 25.7437 14.9342L23.6228 17.0207C24.5904 18.5115 26.2868 19.5 28.2181 19.5C29.663 19.5 31.0487 18.9353 32.0705 17.9301L35.4049 14.6497C36.4267 13.6446 37.0007 12.2813 37.0007 10.8598C37.0007 7.89967 34.5615 5.5 31.5525 5.5C30.1076 5.5 28.7218 6.06469 27.7001 7.06985L18.6733 15.9503Z" fill="#54AB5D"/>
</g>
<path d="M50.6484 15.6719V17.5H44.5938V15.6719H50.6484ZM45.3594 6.125V17.5H43.0156V6.125H45.3594ZM49.8594 10.7578V12.5391H44.5938V10.7578H49.8594ZM50.6406 6.125V7.96094H44.5938V6.125H50.6406ZM61.2734 6.125V17.5H58.9297L54.3594 9.875V17.5H52.0156V6.125H54.3594L58.9375 13.7578V6.125H61.2734ZM67.6094 11.7344V13.5H63.1953V11.7344H67.6094ZM72.1172 6.125V17.5H69.7812V6.125H72.1172ZM76.3828 6.125L78.5234 10.0938L80.6641 6.125H83.3438L80.0391 11.7656L83.4297 17.5H80.7266L78.5234 13.4531L76.3203 17.5H73.6016L77 11.7656L73.6875 6.125H76.3828Z" fill="#212121"/>
<defs>
<clipPath id="clip0_584_1563">
<rect width="37" height="14" fill="white" transform="translate(0 5.5)"/>
</clipPath>
</defs>
</svg>
